<svg xmlns="http://www.w3.org/2000/svg" xmlns:xlink="http://www.w3.org/1999/xlink" width="270.999" height="80" viewBox="0 0 270.999 80">
  <defs>
    <clipPath id="clip-path">
      <path id="path71" d="M511.8-157.815v80h271v-80" transform="translate(-511.801 157.815)"/>
    </clipPath>
  </defs>
  <g id="g11" transform="translate(-513.639 156.59)">
    <g id="g2510" transform="translate(513.639 -156.59)">
      <path id="path53" d="M542.626-146.164c-6.2-2.75-9.89-3.818-13.56-3.818-3.85,0-6.317,1.379-6.317,3.51,0,6.43,21.814,4.621,21.814,19.495,0,8.2-6.881,12.967-16.442,12.967-7.5,0-11.192-1.94-15.446-4.137v-9.2c6.135,4.065,9.89,5.5,14.623,5.5,4.1,0,6.317-1.436,6.317-3.939,0-7-21.814-4.437-21.814-19.753,0-7.386,6.383-12.276,16.321-12.276a35.016,35.016,0,0,1,14.5,3.321v8.33" transform="translate(-511.801 157.815)" fill="#009e4d"/>
      <path id="path55" d="M562.073-120.356a28.154,28.154,0,0,1-9.779,1.947c-10.16,0-16.728-5.917-16.728-14.92,0-8.838,6.823-15.081,16.35-15.081a30.192,30.192,0,0,1,9.714,1.874v6.766a16.577,16.577,0,0,0-7.4-1.958c-5.453,0-8.961,3.277-8.961,8.334,0,5.129,3.449,8.5,8.645,8.5,2.193,0,4.142-.5,8.154-2v6.539" transform="translate(-500.706 162.206)" fill="#009e4d"/>
      <path id="path57" d="M610.7-136.647c.372-4.016,2.7-6.337,6.276-6.337,3.511,0,5.891,2.387,6.267,6.337Zm5.649-11.757c-8.915,0-15.261,6.3-15.261,15.157,0,8.926,6.6,14.836,16.77,14.836a20.8,20.8,0,0,0,12.894-3.841V-127.9c-4.252,3.029-7.065,4.072-10.7,4.072-5.73,0-9.234-2.965-9.551-8.026h20.758c.431-10.563-6.5-16.548-14.915-16.548" transform="translate(-470.117 162.209)" fill="#009e4d"/>
      <path id="path59" d="M624.049-119.108h9.077V-148.04h-9.077Z" transform="translate(-459.395 162.379)" fill="#009e4d"/>
      <path id="path61" d="M654.312-122.622a7.62,7.62,0,0,1-5.4,2.384c-4.274,0-6.979-3.517-6.979-8.788,0-5.776,2.7-9.106,7.279-9.106a9.864,9.864,0,0,1,5.1,1.7Zm0-34.829v15.074a16.946,16.946,0,0,0-7.538-1.812c-8.279,0-14.007,6.119-14.007,14.973,0,8.664,5.728,15.036,13.5,15.036a11.931,11.931,0,0,0,8.05-2.871v2.329h9.075v-42.728h-9.075" transform="translate(-455.324 157.985)" fill="#009e4d"/>
      <path id="path63" d="M665.857-136.647c.378-4.016,2.7-6.337,6.263-6.337,3.517,0,5.921,2.387,6.3,6.337ZM671.5-148.4c-8.913,0-15.248,6.3-15.248,15.157,0,8.926,6.6,14.836,16.759,14.836a20.874,20.874,0,0,0,12.914-3.841V-127.9c-4.258,3.029-7.076,4.072-10.723,4.072-5.7,0-9.217-2.965-9.535-8.026h20.749c.431-10.563-6.509-16.548-14.916-16.548" transform="translate(-444.36 162.209)" fill="#009e4d"/>
      <g id="g65">
        <g id="g67" clip-path="url(#clip-path)">
          <path id="path73" d="M688.971-139.577h.134c2.694-6.022,5.71-8.845,9.21-8.845,1.813,0,3.378.691,6.011,2.639l-2.5,8.022c-2.384-1.5-3.95-2.132-5.389-2.132-3.33,0-5.46,3.139-7.468,8.446v12.481h-9.087v-28.925h9.087v8.315" transform="translate(-433.327 162.2)" fill="#009e4d"/>
          <path id="path75" d="M633.756-155.672c.853,2.248-.682,5.383-3.416,7s-5.646,1.1-6.491-1.148c-.862-2.252.666-5.391,3.407-7,2.737-1.621,5.64-1.107,6.5,1.146" transform="translate(-459.601 157.839)" fill="#009e4d"/>
        </g>
      </g>
      <path id="path77" d="M585.134-133.129c0-7.84-5.329-11.051-10.587-11.051-3.576,0-6.515,1.509-9.144,4.837h-.125v-18.109h-9.086V-114.8h9.086v-18.331c2.125-3.075,3.94-4.39,6.069-4.39,2.826,0,4.7,2.01,4.7,6.331v10.164a27.235,27.235,0,0,1,9.084-2.884v-9.221" transform="translate(-491.076 157.985)" fill="#009e4d"/>
      <path id="path79" d="M597.345-148.41c-3.7,0-6.526,1.375-9.417,4.683v-4.14h-9.082v19.662c3.146.314,7.16,1.757,9.082,4.14v-13.512c2.387-3.583,4.082-4.777,6.341-4.777,2.573,0,4.527,1.7,4.527,5.778v17.566h9.084v-18.318c0-8.521-6.018-11.082-10.534-11.082" transform="translate(-480.499 162.206)" fill="#009e4d"/>
      <path id="path81" d="M606.544-121.682H595.99v7.5h10.182v3.218H595.99v7.736h10.87v3.214H592.451v-24.878h14.093v3.211" transform="translate(-474.147 173.186)" fill="#009e4d"/>
      <path id="path83" d="M607.935-100h3.233v-24.9h-3.233Z" transform="translate(-466.918 173.184)" fill="#009e4d"/>
      <path id="path85" d="M623.5-116.544c2.292,0,3.713,1.579,3.819,4.06h-8.233C619.536-115.075,621.027-116.544,623.5-116.544Zm-4.472,6.218h11.517c0-6.071-2.774-9-7.118-9-4.507,0-7.637,3.332-7.637,8.3,0,4.542,2.827,8.735,7.918,8.735a10.723,10.723,0,0,0,6.553-1.934v-3.146a10.434,10.434,0,0,1-5.737,1.98c-3.132,0-4.991-1.68-5.5-4.934" transform="translate(-463.249 175.784)" fill="#009e4d"/>
      <path id="path87" d="M644.321-114.707a7.453,7.453,0,0,0-4.516-1.647c-2.959,0-5.009,2.27-5.009,5.594,0,3.387,2.182,5.427,5.55,5.427a10.351,10.351,0,0,0,4.336-1.089v3.189a13.258,13.258,0,0,1-4.877.941,7.875,7.875,0,0,1-8.293-8.178c0-5.429,3.1-8.858,8.071-8.858a10.73,10.73,0,0,1,4.738,1.129v3.491" transform="translate(-455.911 175.784)" fill="#009e4d"/>
      <path id="path89" d="M652.218-118.035h5.189v2.914h-5.189v8.42a2.273,2.273,0,0,0,2.338,2.485,7.034,7.034,0,0,0,3.686-1.218v3.033a9.639,9.639,0,0,1-3.944,1.089c-3.521,0-5.3-2.186-5.3-5.145v-8.664h-2.851v-.361l6.073-5.943v3.39" transform="translate(-449.079 174.805)" fill="#009e4d"/>
      <path id="path91" d="M663.278-119.014v3.8h.066c1.648-2.906,3.216-4.111,4.742-4.111a5.691,5.691,0,0,1,3.9,1.9l-1.713,2.849a5.3,5.3,0,0,0-3.025-1.645c-2.226,0-3.973,2.263-3.973,5.066v8.559h-3.229v-16.416h3.229" transform="translate(-442.587 175.784)" fill="#009e4d"/>
      <path id="path93" d="M694.857-114.707a7.494,7.494,0,0,0-4.533-1.647c-2.952,0-4.986,2.27-4.986,5.594,0,3.387,2.184,5.427,5.532,5.427a10.491,10.491,0,0,0,4.353-1.089v3.189a13.5,13.5,0,0,1-4.9.941,7.885,7.885,0,0,1-8.3-8.178c0-5.429,3.119-8.858,8.086-8.858a10.819,10.819,0,0,1,4.747,1.129v3.491" transform="translate(-432.328 175.784)" fill="#009e4d"/>
      <path id="path95" d="M674.031-102.7h3.232v-16.416h-3.232Z" transform="translate(-436.059 175.884)" fill="#009e4d"/>
      <g id="g97">
        <g id="g99" clip-path="url(#clip-path)">
          <path id="path105" d="M677.454-122.9a2.245,2.245,0,0,1-1.208,2.483c-.979.572-2.015.389-2.31-.405a2.267,2.267,0,0,1,1.223-2.485c.97-.579,2-.394,2.3.407" transform="translate(-436.142 173.77)" fill="#009e4d"/>
          <path id="path107" d="M587.239-117.921a1.18,1.18,0,0,0-1.043.354.7.7,0,0,0-.161.409l-2.9,10.994c-.68,3.856-5.416,7.707-11.59,7.707h-8.583l1.489-5.649h5.514a1.747,1.747,0,0,0,1.371-.62,1.315,1.315,0,0,0,.336-.666L573.96-115c.675-3.858,4.751-8.119,10.923-8.119h8.79l-1.124,5.2Zm1.98,6.7.981-3.557h8.93c1.1-5.158.235-9.936-2.9-13.066-6.335-6.335-19.588-4.182-29.462,5.264a34.391,34.391,0,0,0-4.03,4.674h5.376l-1.251,3.565h-6.423a29.249,29.249,0,0,0-1.63,3.37h7.617l-1.219,3.564h-7.485c-1.28,5.446-.464,10.525,2.756,13.75,6.256,6.254,19.469,4.056,29.338-5.389a35.066,35.066,0,0,0,4.443-5.237h-6.907l1.052-3.557h8.075a30.539,30.539,0,0,0,1.562-3.381H589.22" transform="translate(-490.629 170.122)" fill="#009e4d"/>
        </g>
      </g>
    </g>
  </g>
</svg>
